<mxfile host="app.diagrams.net" modified="2024-03-04T09:38:37.636Z" agent="Mozilla/5.0 (Macintosh; Intel Mac OS X 10_15_7) AppleWebKit/537.36 (KHTML, like Gecko) Chrome/121.0.0.0 Safari/537.36" version="24.0.1" etag="sWNjK_6GR9SP1sk0a_ND" type="github">
  <diagram name="第 1 页" id="Dm1CJa05fnDdfBQ5dVc0">
    <mxGraphModel>
      <root>
        <mxCell id="0" />
        <mxCell id="1" parent="0" />
      </root>
    </mxGraphModel>
  </diagram>
</mxfile>
